<?xml version="1.0" encoding="UTF-8"?>
<svg width="22px" height="22px" viewBox="0 0 22 22" version="1.1" xmlns="http://www.w3.org/2000/svg" xmlns:xlink="http://www.w3.org/1999/xlink">
    <!-- Generator: Sketch 55.2 (78181) - https://sketchapp.com -->
    <title>question (8)</title>
    <desc>Created with Sketch.</desc>
    <g id="Home" stroke="none" stroke-width="1" fill="none" fill-rule="evenodd">
        <g id="layout-protegit" transform="translate(-976.000000, -3690.000000)" fill="#FFDE14">
            <g id="Centro-de-Ajuda" transform="translate(0.000000, 3415.000000)">
                <g id="Group-13" transform="translate(975.000000, 73.000000)">
                    <g id="Group-10" transform="translate(0.000000, 6.000000)">
                        <g id="question-(8)" transform="translate(1.000000, 196.000000)">
                            <g>
                                <path d="M21.9135898,19.9227188 L20.4032813,15.5273164 C21.1297109,14.0589023 21.5138945,12.4221797 21.5164727,10.7752734 C21.5208555,7.93925 20.4235625,5.25761328 18.4266328,3.22450391 C16.4294023,1.19100781 13.7679609,0.04640625 10.932668,0.00141796875 C9.44719531,-0.0224296875 8.00576563,0.25128125 6.64623438,0.814042969 C5.33495703,1.35686719 4.15903125,2.14315234 3.15115625,3.15102734 C2.14323828,4.15890234 1.35695312,5.33482812 0.814171875,6.64610547 C0.251410156,8.00563672 -0.022,9.44779687 0.00150390625,10.9325391 C0.04640625,13.767832 1.19105078,16.4292734 3.22454687,18.4265469 C5.25370312,20.4195664 7.92842187,21.5165156 10.7583438,21.5164727 C10.7638867,21.5164727 10.7697305,21.5164727 10.7752734,21.5164727 C12.4221797,21.5138945 14.0589023,21.1297109 15.5273594,20.4032813 L19.9227617,21.9135898 C20.0918008,21.9716836 20.2650508,22 20.4364102,22 C20.8434961,22 21.2394961,21.8400703 21.5397617,21.5397188 C21.9663984,21.113082 22.1096992,20.4934727 21.9135898,19.9227188 Z M20.6174375,20.6174375 C20.574168,20.660707 20.4815273,20.7263633 20.3465625,20.680043 L15.6890078,19.0796289 C15.6201289,19.0559961 15.5485,19.0442227 15.4770859,19.0442227 C15.3718125,19.0442227 15.2670117,19.0697031 15.1720938,19.1199336 C13.8260117,19.8320547 12.304918,20.20975 10.7732109,20.2120703 C5.63629688,20.2203633 1.38703125,16.0479687 1.30564844,10.9118711 C1.26469922,8.32777344 2.24765234,5.89913672 4.0734375,4.07335156 C5.89922266,2.24760937 8.32712891,1.26482812 10.911957,1.30569141 C16.0480117,1.38711719 20.2200625,5.63427734 20.2120703,10.7732539 C20.2096641,12.3050039 19.8320117,13.8260977 19.1199336,15.1720938 C19.0356289,15.3314219 19.0210625,15.5185508 19.0796289,15.6890078 L20.680043,20.3465625 C20.7264062,20.4814414 20.66075,20.5742109 20.6174375,20.6174375 Z" id="Shape" fill-rule="nonzero"></path>
                                <path d="M10.6523828,15.5868281 C10.3112539,15.5868281 9.98443359,15.886793 10.0002031,16.2390078 C10.0160156,16.5923398 10.2867617,16.8911875 10.6523828,16.8911875 C10.9935117,16.8911875 11.320332,16.5912227 11.3045625,16.2390078 C11.28875,15.8856328 11.0180039,15.5868281 10.6523828,15.5868281 Z" id="Path" fill-rule="nonzero"></path>
                                <path d="M10.6523828,5.48599219 C8.86320703,5.48599219 7.40759766,6.94160156 7.40759766,8.73077734 C7.40759766,9.09094141 7.69961328,9.38295703 8.05977734,9.38295703 C8.41994141,9.38295703 8.71195703,9.09094141 8.71195703,8.73077734 C8.71195703,7.66085547 9.58246094,6.79035156 10.6523828,6.79035156 C11.7223047,6.79035156 12.5928086,7.66085547 12.5928086,8.73077734 C12.5928086,9.80069922 11.7223047,10.6712031 10.6523828,10.6712031 C10.2922187,10.6712031 10.0002031,10.9632188 10.0002031,11.3233828 L10.0002031,13.9833633 C10.0002031,14.3435273 10.2922187,14.635543 10.6523828,14.635543 C11.0125469,14.635543 11.3045625,14.3435703 11.3045625,13.9833203 L11.3045625,11.9096914 C12.7822148,11.6069766 13.897168,10.2966445 13.897168,8.73077734 C13.897168,6.94160156 12.4415586,5.48599219 10.6523828,5.48599219 Z" id="Path" fill-rule="nonzero"></path>
                            </g>
                        </g>
                    </g>
                </g>
            </g>
        </g>
    </g>
</svg>